<svg width="218" height="184" viewBox="0 0 218 184" fill="none" xmlns="http://www.w3.org/2000/svg">
<rect width="218" height="184" fill="#E5E5E5"/>
<g clip-path="url(#clip0)">
<rect width="218" height="184" fill="white"/>
<path d="M110.953 94.3242H75.1523V132H63.9023V46.6875H116.754V55.9453H75.1523V85.125H110.953V94.3242Z" fill="#261E1E"/>
<path d="M80.8398 122.801H129.648V132H67.5391V123.562L114.297 55.9453H68.3008V46.6875H127.773V54.9492L80.8398 122.801Z" fill="#261E1E"/>
<path d="M98.9023 132V46.6875H126.793C136.051 46.6875 143.004 48.6016 147.652 52.4297C152.34 56.2578 154.684 61.9219 154.684 69.4219C154.684 73.4062 153.551 76.9414 151.285 80.0273C149.02 83.0742 145.934 85.4375 142.027 87.1172C146.637 88.4062 150.27 90.8672 152.926 94.5C155.621 98.0938 156.969 102.391 156.969 107.391C156.969 115.047 154.488 121.062 149.527 125.438C144.566 129.812 137.555 132 128.492 132H98.9023ZM110.152 92.0977V122.801H128.727C133.961 122.801 138.082 121.453 141.09 118.758C144.137 116.023 145.66 112.273 145.66 107.508C145.66 97.2344 140.074 92.0977 128.902 92.0977H110.152ZM110.152 83.0742H127.145C132.066 83.0742 135.992 81.8438 138.922 79.3828C141.891 76.9219 143.375 73.582 143.375 69.3633C143.375 64.6758 142.008 61.2773 139.273 59.168C136.539 57.0195 132.379 55.9453 126.793 55.9453H110.152V83.0742Z" fill="#261E1E"/>
</g>
<defs>
<clipPath id="clip0">
<rect width="218" height="184" fill="white"/>
</clipPath>
</defs>
</svg>
